<svg xmlns="http://www.w3.org/2000/svg" version="1.1" xmlns:xlink="http://www.w3.org/1999/xlink" xmlns:svgjs="http://svgjs.dev/svgjs" width="1500" height="1692" viewBox="0 0 1500 1692"><g transform="matrix(1,0,0,1,0,-2.342925523545773)"><svg viewBox="0 0 320 361" data-background-color="#ffffff" preserveAspectRatio="xMidYMid meet" height="1692" width="1500" xmlns="http://www.w3.org/2000/svg" xmlns:xlink="http://www.w3.org/1999/xlink"><g id="tight-bounds" transform="matrix(1,0,0,1,0,0.49987950000002)"><svg viewBox="0 0 320 360" height="360" width="320"><g><svg></svg></g><g><svg viewBox="0 0 320 360" height="360" width="320"><g><path transform="translate(-76.07486,-56.3133) scale(4.7215,4.7215)" d="M24.473 37.513l0.604-1.109c4.807-8.829 14.163-14.821 24.923-14.82 10.763 0 20.122 5.995 24.928 14.827l0.604 1.11 1.731-6.637 6.572 1.686-0.562-1.015c-6.478-11.702-18.949-19.628-33.273-19.628-14.324 0-26.794 7.926-33.274 19.628l-0.562 1.014 6.579-1.685zM50 12.927c13.521 0 25.324 7.262 31.785 18.085l-5.238-1.343-1.359 5.212c-5.129-8.559-14.483-14.297-25.188-14.297-10.701 0-20.053 5.735-25.182 14.289l-1.358-5.205-5.245 1.343c6.461-10.823 18.265-18.084 31.785-18.084zM75.527 62.587l-0.604 1.109c-4.807 8.83-14.163 14.821-24.923 14.821-10.763 0-20.122-5.994-24.928-14.827l-0.604-1.109-1.731 6.636-6.573-1.686 0.562 1.015c6.479 11.701 18.949 19.628 33.274 19.628 14.324 0 26.795-7.927 33.274-19.628l0.562-1.014-6.579 1.685zM50 87.174c-13.521 0-25.324-7.262-31.785-18.085l5.237 1.344 1.36-5.212c5.129 8.557 14.483 14.296 25.188 14.296 10.702 0 20.053-5.735 25.183-14.29l1.357 5.205 5.245-1.343c-6.461 10.822-18.264 18.085-31.785 18.085z" fill="#0080ff" fill-rule="nonzero" stroke="none" stroke-width="1" stroke-linecap="butt" stroke-linejoin="miter" stroke-miterlimit="10" stroke-dasharray="" stroke-dashoffset="0" font-family="none" font-weight="none" font-size="none" text-anchor="none" style="mix-blend-mode: normal" data-fill-palette-color="tertiary"></path></g><g transform="matrix(1,0,0,1,64,125.14059311195484)"><svg viewBox="0 0 192 109.71881377609033" height="109.71881377609033" width="192"><g><svg viewBox="0 0 192 109.71881377609033" height="109.71881377609033" width="192"><g><svg viewBox="0 0 192 109.71881377609033" height="109.71881377609033" width="192"><g transform="matrix(1,0,0,1,0,66.0143146232789)"><svg viewBox="0 0 192 43.70449915281142" height="43.70449915281142" width="192"><g id="textblocktransform"><svg viewBox="0 0 192 43.70449915281142" height="43.70449915281142" width="192" id="textblock"><g><svg viewBox="0 0 192 23.783429040196882" height="23.783429040196882" width="192"><g transform="matrix(1,0,0,1,0,0)"><svg width="192" viewBox="-0.1 -37.5 304.73 37.75" height="23.783429040196882" data-palette-color="#0080ff"><path d="M21.1-35L21.1-10.75Q21.1-5.5 18.18-2.63 15.25 0.25 10.2 0.25L10.2 0.25Q7.05 0.25 4.45-1.07 1.85-2.4-0.1-4.75L-0.1-4.75 2.7-9.05Q4.45-7.2 6.4-6.2 8.35-5.2 10.15-5.2L10.15-5.2Q12.5-5.2 13.83-6.68 15.15-8.15 15.15-10.9L15.15-10.9 15.15-29.95 3.05-29.95 3.05-35 21.1-35ZM40.6-26.75L40.6-26.75Q44.7-26.75 47.82-25.05 50.95-23.35 52.7-20.33 54.45-17.3 54.45-13.3L54.45-13.3Q54.45-9.3 52.7-6.25 50.95-3.2 47.82-1.5 44.7 0.2 40.6 0.2L40.6 0.2Q36.5 0.2 33.35-1.5 30.2-3.2 28.45-6.25 26.7-9.3 26.7-13.3L26.7-13.3Q26.7-17.3 28.45-20.33 30.2-23.35 33.35-25.05 36.5-26.75 40.6-26.75ZM40.6-22.1L40.6-22.1Q38.2-22.1 36.35-20.98 34.5-19.85 33.47-17.85 32.45-15.85 32.45-13.25L32.45-13.25Q32.45-10.6 33.47-8.6 34.5-6.6 36.35-5.48 38.2-4.35 40.6-4.35L40.6-4.35Q43-4.35 44.82-5.48 46.65-6.6 47.67-8.6 48.7-10.6 48.7-13.25L48.7-13.25Q48.7-15.85 47.67-17.85 46.65-19.85 44.82-20.98 43-22.1 40.6-22.1ZM75.75-26.75L75.75-26.75Q79.55-26.75 82.4-25.05 85.25-23.35 86.85-20.3 88.45-17.25 88.45-13.2L88.45-13.2Q88.45-9.25 86.87-6.23 85.3-3.2 82.47-1.5 79.65 0.2 75.85 0.2L75.85 0.2Q72.2 0.2 69.62-1.4 67.05-3 65.7-6.03 64.35-9.05 64.35-13.2L64.35-13.2Q64.35-17.5 65.7-20.53 67.05-23.55 69.62-25.15 72.2-26.75 75.75-26.75ZM74.55-22.2L74.55-22.2Q72.2-22.2 70.35-21.05 68.5-19.9 67.47-17.93 66.45-15.95 66.45-13.35L66.45-13.35Q66.45-10.75 67.47-8.72 68.5-6.7 70.35-5.58 72.2-4.45 74.55-4.45L74.55-4.45Q76.95-4.45 78.77-5.6 80.6-6.75 81.62-8.75 82.65-10.75 82.65-13.35L82.65-13.35Q82.65-15.9 81.62-17.9 80.6-19.9 78.77-21.05 76.95-22.2 74.55-22.2ZM60.7 0L60.7-37.1 66.45-37.1 66.45 0 60.7 0ZM111.29-35L111.29-10.75Q111.29-5.5 108.37-2.63 105.44 0.25 100.39 0.25L100.39 0.25Q97.24 0.25 94.64-1.07 92.04-2.4 90.09-4.75L90.09-4.75 92.89-9.05Q94.64-7.2 96.59-6.2 98.54-5.2 100.34-5.2L100.34-5.2Q102.69-5.2 104.02-6.68 105.34-8.15 105.34-10.9L105.34-10.9 105.34-29.95 93.24-29.95 93.24-35 111.29-35ZM124.29-26.55L124.29-11.55Q124.29-8.45 125.94-6.68 127.59-4.9 130.49-4.9L130.49-4.9Q133.94-5 135.87-7.45 137.79-9.9 137.79-13.5L137.79-13.5 139.34-13.5Q139.34-8.6 137.99-5.6 136.64-2.6 134.17-1.23 131.69 0.15 128.29 0.2L128.29 0.2Q125.24 0.2 123.07-1.05 120.89-2.3 119.72-4.6 118.54-6.9 118.54-10.05L118.54-10.05 118.54-26.55 124.29-26.55ZM137.79 0L137.79-26.55 143.54-26.55 143.54 0 137.79 0ZM171.74 0L171.74-15Q171.74-18.1 170.04-19.88 168.34-21.65 165.34-21.65L165.34-21.65Q161.79-21.6 159.76-19.15 157.74-16.7 157.74-13.05L157.74-13.05 156.14-13.05Q156.14-18 157.54-21 158.94-24 161.51-25.38 164.09-26.75 167.59-26.75L167.59-26.75Q170.69-26.75 172.91-25.5 175.14-24.25 176.31-21.98 177.49-19.7 177.49-16.5L177.49-16.5 177.49 0 171.74 0ZM152.04 0L152.04-26.55 157.79-26.55 157.79 0 152.04 0ZM207.09-22.65L203.94-18.95Q202.54-20.4 200.64-21.2 198.74-22 196.34-22L196.34-22Q194.04-22 192.24-20.9 190.44-19.8 189.44-17.82 188.44-15.85 188.44-13.25L188.44-13.25Q188.44-10.65 189.44-8.68 190.44-6.7 192.24-5.58 194.04-4.45 196.34-4.45L196.34-4.45Q198.84-4.45 200.84-5.28 202.84-6.1 204.19-7.7L204.19-7.7 207.39-4.55Q205.59-2.3 202.71-1.05 199.84 0.2 196.09 0.2L196.09 0.2Q192.14 0.2 189.11-1.5 186.09-3.2 184.39-6.23 182.69-9.25 182.69-13.25L182.69-13.25Q182.69-17.25 184.39-20.28 186.09-23.3 189.11-25.03 192.14-26.75 196.09-26.75L196.09-26.75Q199.69-26.75 202.46-25.68 205.24-24.6 207.09-22.65L207.09-22.65ZM220.13-32.85L220.13-8.4Q220.13-6.25 220.88-5.48 221.63-4.7 222.98-4.7L222.98-4.7Q223.88-4.7 224.86-5 225.83-5.3 226.98-5.9L226.98-5.9 228.43-1.75Q226.88-0.8 225.23-0.28 223.58 0.25 221.88 0.25L221.88 0.25Q219.88 0.25 218.18-0.53 216.48-1.3 215.46-3 214.43-4.7 214.43-7.4L214.43-7.4 214.43-32.85 220.13-32.85ZM210.68-21.5L210.68-25.6 227.98-25.6 227.98-21.5 210.68-21.5ZM233.73 0L233.73-26.55 239.43-26.55 239.43 0 233.73 0ZM236.58-37.5L236.58-37.5Q238.03-37.5 238.98-36.55 239.93-35.6 239.93-34.15L239.93-34.15Q239.93-32.75 238.98-31.78 238.03-30.8 236.58-30.8L236.58-30.8Q235.18-30.8 234.21-31.78 233.23-32.75 233.23-34.15L233.23-34.15Q233.23-35.6 234.21-36.55 235.18-37.5 236.58-37.5ZM259.33-26.75L259.33-26.75Q263.43-26.75 266.55-25.05 269.68-23.35 271.43-20.33 273.18-17.3 273.18-13.3L273.18-13.3Q273.18-9.3 271.43-6.25 269.68-3.2 266.55-1.5 263.43 0.2 259.33 0.2L259.33 0.2Q255.23 0.2 252.08-1.5 248.93-3.2 247.18-6.25 245.43-9.3 245.43-13.3L245.43-13.3Q245.43-17.3 247.18-20.33 248.93-23.35 252.08-25.05 255.23-26.75 259.33-26.75ZM259.33-22.1L259.33-22.1Q256.93-22.1 255.08-20.98 253.23-19.85 252.2-17.85 251.18-15.85 251.18-13.25L251.18-13.25Q251.18-10.6 252.2-8.6 253.23-6.6 255.08-5.48 256.93-4.35 259.33-4.35L259.33-4.35Q261.73-4.35 263.55-5.48 265.38-6.6 266.4-8.6 267.43-10.6 267.43-13.25L267.43-13.25Q267.43-15.85 266.4-17.85 265.38-19.85 263.55-20.98 261.73-22.1 259.33-22.1ZM298.88 0L298.88-15Q298.88-18.1 297.18-19.88 295.48-21.65 292.48-21.65L292.48-21.65Q288.93-21.6 286.9-19.15 284.88-16.7 284.88-13.05L284.88-13.05 283.28-13.05Q283.28-18 284.68-21 286.07-24 288.65-25.38 291.23-26.75 294.73-26.75L294.73-26.75Q297.82-26.75 300.05-25.5 302.28-24.25 303.45-21.98 304.63-19.7 304.63-16.5L304.63-16.5 304.63 0 298.88 0ZM279.18 0L279.18-26.55 284.93-26.55 284.93 0 279.18 0Z" opacity="1" transform="matrix(1,0,0,1,0,0)" fill="#0080ff" class="wordmark-text-0" data-fill-palette-color="primary" id="text-0"></path></svg></g></svg></g><g transform="matrix(1,0,0,1,0,29.3981258342904)"><svg viewBox="0 0 192 14.306373318521022" height="14.306373318521022" width="192"><g transform="matrix(1,0,0,1,0,0)"><svg width="192" viewBox="2.1 -34.8 477.7712121210719 35.599999999999994" height="14.306373318521022" data-palette-color="#0080ff"><path d="M24.9 0.7L24.9 0.7Q24.5 0.7 24.13 0.45 23.75 0.2 23.6-0.75L23.6-0.75 21.2-20.9 20.55-24.55Q20.15-27 19.8-28.2 19.45-29.4 19.05-30.15L19.05-30.15Q18.65-30.9 18.43-31.38 18.2-31.85 18.2-32.3L18.2-32.3Q18.2-32.8 18.73-33.23 19.25-33.65 20.03-33.95 20.8-34.25 21.63-34.43 22.45-34.6 23.05-34.6L23.05-34.6Q24.35-34.6 25.2-32.5 26.05-30.4 26.6-25.5L26.6-25.5 29-4.65 27.3-4.05 35.15-24.55Q35.75-26.05 35.9-27 36.05-27.95 36.05-28.75 36.05-29.55 36.15-30.55L36.15-30.55Q36.25-31.5 37.08-32.25 37.9-33 38.98-33.55 40.05-34.1 41.03-34.4 42-34.7 42.45-34.7L42.45-34.7Q43.8-34.7 43.8-33.85L43.8-33.85Q43.8-33.6 43.7-33.27 43.6-32.95 43.4-32.55L43.4-32.55 30.8-2.6Q30.5-1.9 29.75-1.13 29-0.35 27.8 0.18 26.6 0.7 24.9 0.7ZM8.7 0.7L8.7 0.7Q8.3 0.7 7.93 0.45 7.55 0.2 7.4-0.75L7.4-0.75 4.9-22.2Q4.6-24.9 4.33-26.33 4.05-27.75 3.75-28.48 3.45-29.2 3.15-29.75L3.15-29.75Q2.75-30.55 2.43-31.03 2.1-31.5 2.1-31.95L2.1-31.95Q2.1-32.45 2.65-32.93 3.2-33.4 4.05-33.77 4.9-34.15 5.8-34.38 6.7-34.6 7.35-34.6L7.35-34.6Q8.1-34.6 8.78-33.77 9.45-32.95 10-30.98 10.55-29 10.85-25.5L10.85-25.5 12.85-4.65 10.9-4.05 21.65-27.9 22.2-20.15 14.7-2.35Q14.25-1.25 12.73-0.28 11.2 0.7 8.7 0.7ZM63.5 0.5L59.85 0.5Q59.45 0.5 59.17-0.03 58.9-0.55 58.8-1.2 58.7-1.85 58.7-2.25L58.7-2.25Q58.7-2.95 58.8-4.05 58.9-5.15 59.05-6.38 59.2-7.6 59.35-8.5L59.35-8.5 60.2-13.7Q60.35-14.7 60.5-15.58 60.65-16.45 60.65-17.45L60.65-17.45Q60.65-18.2 60.35-18.6 60.05-19 59.55-19L59.55-19Q58.9-19 57.42-17.78 55.95-16.55 54.27-14.25 52.6-11.95 51.23-8.68 49.85-5.4 49.45-1.25L49.45-1.25 48.2-8.75Q50.25-14.55 52.8-18 55.35-21.45 57.85-22.98 60.35-24.5 62.25-24.5L62.25-24.5Q64.45-24.5 65.45-23.23 66.45-21.95 66.45-19.95L66.45-19.95Q66.45-18.85 66.28-17.65 66.1-16.45 65.9-15.15L65.9-15.15 63.5 0.5ZM45 0.7L45 0.7Q44.35 0.7 44.02 0.43 43.7 0.15 43.7-0.8 43.7-1.75 43.9-3.75L43.9-3.75 46.05-23.45Q46.35-26.3 46.8-29.13 47.25-31.95 47.4-34.8L47.4-34.8 50.9-34.8Q51.9-34.8 52.38-33.45 52.85-32.1 52.85-30.7L52.85-30.7Q52.85-29.6 52.75-28.73 52.65-27.85 52.45-26.9 52.25-25.95 51.9-24.5L51.9-24.5 48.7-9.85 50.35-11.9Q50-8.7 49.8-5.85 49.6-3 49.45-1.25L49.45-1.25Q49.45-0.75 48.58-0.3 47.7 0.15 46.65 0.43 45.6 0.7 45 0.7ZM77.55 0.8L77.55 0.8Q73.7 0.8 71.6-1.63 69.5-4.05 69.5-8.3L69.5-8.3Q69.5-11.85 70.5-14.8 71.5-17.75 73.3-19.95 75.1-22.15 77.53-23.35 79.95-24.55 82.8-24.55L82.8-24.55Q86.2-24.55 88-23.1 89.8-21.65 89.8-18.95L89.8-18.95Q89.8-16.2 87.97-14.15 86.15-12.1 82.72-10.65 79.3-9.2 74.55-8.2L74.55-8.2 73.9-11.2Q76.65-11.55 78.95-12.4 81.25-13.25 82.65-14.68 84.05-16.1 84.05-18.05L84.05-18.05Q84.05-19.4 83.53-20.1 83-20.8 81.65-20.8L81.65-20.8Q79.6-20.8 78.17-19.3 76.75-17.8 76.03-15.4 75.3-13 75.3-10.3L75.3-10.3Q75.3-6.65 76.42-5.43 77.55-4.2 79.75-4.2L79.75-4.2Q82.05-4.2 83.78-4.93 85.5-5.65 86.75-6.45L86.75-6.45Q87.15-6.7 87.45-6.85 87.75-7 87.95-7L87.95-7Q88.2-7 88.35-6.8 88.5-6.6 88.5-6.35L88.5-6.35Q88.5-5.45 87.7-4.25 86.9-3.05 85.42-1.9 83.95-0.75 81.95 0.03 79.95 0.8 77.55 0.8ZM97.95-1.2L97.95-1.2 96.75-8.75Q98.6-13.55 100.52-17.07 102.45-20.6 104.45-22.55 106.45-24.5 108.5-24.5L108.5-24.5Q109.65-24.5 110.15-23.78 110.65-23.05 110.65-21.95L110.65-21.95Q110.65-20.95 110.42-20.03 110.2-19.1 109.77-18.5 109.35-17.9 108.75-17.9L108.75-17.9Q108.2-17.9 107.52-18.25 106.85-18.6 105.7-18.6L105.7-18.6Q104.95-18.6 103.8-17.05 102.65-15.5 101.42-12.93 100.2-10.35 99.25-7.28 98.3-4.2 97.95-1.2ZM93.75 0.7L93.75 0.7Q93.1 0.7 92.77 0.48 92.45 0.25 92.42-0.7 92.4-1.65 92.65-3.75L92.65-3.75 95-24.55 98.5-24.55Q99.25-24.55 99.85-23.45 100.45-22.35 100.45-20.95L100.45-20.95Q100.45-20.3 100.07-18.93 99.7-17.55 99.2-16.03 98.7-14.5 98.3-13.35L98.3-13.35 97-9.25 98.85-9.55 97.95-1.2Q97.9-0.7 97.35-0.33 96.8 0.05 96.07 0.28 95.35 0.5 94.7 0.6 94.05 0.7 93.75 0.7ZM117.7 0.8L117.7 0.8Q113.85 0.8 111.75-1.63 109.65-4.05 109.65-8.3L109.65-8.3Q109.65-11.85 110.65-14.8 111.65-17.75 113.45-19.95 115.25-22.15 117.67-23.35 120.1-24.55 122.95-24.55L122.95-24.55Q126.35-24.55 128.15-23.1 129.95-21.65 129.95-18.95L129.95-18.95Q129.95-16.2 128.13-14.15 126.3-12.1 122.88-10.65 119.45-9.2 114.7-8.2L114.7-8.2 114.05-11.2Q116.8-11.55 119.1-12.4 121.4-13.25 122.8-14.68 124.2-16.1 124.2-18.05L124.2-18.05Q124.2-19.4 123.67-20.1 123.15-20.8 121.8-20.8L121.8-20.8Q119.75-20.8 118.32-19.3 116.9-17.8 116.17-15.4 115.45-13 115.45-10.3L115.45-10.3Q115.45-6.65 116.57-5.43 117.7-4.2 119.9-4.2L119.9-4.2Q122.2-4.2 123.92-4.93 125.65-5.65 126.9-6.45L126.9-6.45Q127.3-6.7 127.6-6.85 127.9-7 128.1-7L128.1-7Q128.35-7 128.5-6.8 128.65-6.6 128.65-6.35L128.65-6.35Q128.65-5.45 127.85-4.25 127.05-3.05 125.57-1.9 124.1-0.75 122.1 0.03 120.1 0.8 117.7 0.8ZM159.1 0.8L159.1 0.8Q154.9 0.8 151.78-0.88 148.65-2.55 146.9-5.9 145.15-9.25 145.15-14.15L145.15-14.15Q145.15-18.65 146.57-22.43 148-26.2 150.6-28.98 153.2-31.75 156.8-33.27 160.4-34.8 164.8-34.8L164.8-34.8Q168.9-34.8 170.95-33.93 173-33.05 173-30.8L173-30.8Q173-29.6 172.57-28.75 172.15-27.9 171.65-27.9L171.65-27.9Q171.2-27.9 170.63-28.2 170.05-28.5 169.35-28.85L169.35-28.85Q168.15-29.45 166.72-30.13 165.3-30.8 162.95-30.8L162.95-30.8Q159.9-30.8 157.38-28.8 154.85-26.8 153.32-23.28 151.8-19.75 151.8-15.05L151.8-15.05Q151.8-11.1 152.97-8.45 154.15-5.8 156.1-4.5 158.05-3.2 160.35-3.2L160.35-3.2Q162.25-3.2 163.75-3.93 165.25-4.65 166.38-5.6 167.5-6.55 168.4-7.28 169.3-8 170-8L170-8Q170.55-8 170.93-7.75 171.3-7.5 171.3-6.7L171.3-6.7Q171.3-4.75 169.65-3.05 168-1.35 165.25-0.28 162.5 0.8 159.1 0.8ZM178.75 0.8L178.75 0.8Q175.95 0.8 174.75-1.48 173.55-3.75 173.55-7.85L173.55-7.85Q173.55-11.5 174.63-14.55 175.7-17.6 177.55-19.83 179.4-22.05 181.85-23.28 184.3-24.5 187.05-24.5L187.05-24.5Q189.2-24.5 190.97-23.93 192.75-23.35 194-22.75L194-22.75 192.55-17.5Q191.2-18.4 189.53-19.15 187.85-19.9 186.42-20.33 185-20.75 184.3-20.75L184.3-20.75Q182.9-20.75 181.72-19.38 180.55-18 179.88-15.58 179.2-13.15 179.2-10L179.2-10Q179.2-7.1 179.63-5.6 180.05-4.1 181-4.1L181-4.1Q181.65-4.1 183.2-5.58 184.75-7.05 186.95-10.5 189.15-13.95 191.6-19.85L191.6-19.85 193-15.4Q190.3-9.4 187.85-5.85 185.4-2.3 183.15-0.75 180.9 0.8 178.75 0.8ZM194.2 0.5L190.7 0.5Q189.7 0.5 189.5-0.48 189.3-1.45 189.3-2.55L189.3-2.55Q189.3-3.4 189.53-4.65 189.75-5.9 190.1-7.35 190.45-8.8 190.85-10.2L190.85-10.2 191.95-13.95 190.5-15.25 191.7-22.8Q193.3-23.05 194.53-23.45 195.75-23.85 196.57-24.15 197.4-24.45 197.75-24.45L197.75-24.45Q198.3-24.45 198.3-23.85L198.3-23.85Q198.3-23.6 197.68-21.73 197.05-19.85 196.32-16.95 195.6-14.05 195.25-10.65L195.25-10.65 194.2 0.5ZM206.4-1.2L206.4-1.2 205.2-8.75Q207.05-13.55 208.98-17.07 210.9-20.6 212.9-22.55 214.9-24.5 216.95-24.5L216.95-24.5Q218.1-24.5 218.6-23.78 219.1-23.05 219.1-21.95L219.1-21.95Q219.1-20.95 218.88-20.03 218.65-19.1 218.23-18.5 217.8-17.9 217.2-17.9L217.2-17.9Q216.65-17.9 215.98-18.25 215.3-18.6 214.15-18.6L214.15-18.6Q213.4-18.6 212.25-17.05 211.1-15.5 209.88-12.93 208.65-10.35 207.7-7.28 206.75-4.2 206.4-1.2ZM202.2 0.7L202.2 0.7Q201.55 0.7 201.23 0.48 200.9 0.25 200.88-0.7 200.85-1.65 201.1-3.75L201.1-3.75 203.45-24.55 206.95-24.55Q207.7-24.55 208.3-23.45 208.9-22.35 208.9-20.95L208.9-20.95Q208.9-20.3 208.53-18.93 208.15-17.55 207.65-16.03 207.15-14.5 206.75-13.35L206.75-13.35 205.45-9.25 207.3-9.55 206.4-1.2Q206.35-0.7 205.8-0.33 205.25 0.05 204.53 0.28 203.8 0.5 203.15 0.6 202.5 0.7 202.2 0.7ZM226.15 0.8L226.15 0.8Q222.3 0.8 220.2-1.63 218.1-4.05 218.1-8.3L218.1-8.3Q218.1-11.85 219.1-14.8 220.1-17.75 221.9-19.95 223.7-22.15 226.13-23.35 228.55-24.55 231.4-24.55L231.4-24.55Q234.8-24.55 236.6-23.1 238.4-21.65 238.4-18.95L238.4-18.95Q238.4-16.2 236.58-14.15 234.75-12.1 231.33-10.65 227.9-9.2 223.15-8.2L223.15-8.2 222.5-11.2Q225.25-11.55 227.55-12.4 229.85-13.25 231.25-14.68 232.65-16.1 232.65-18.05L232.65-18.05Q232.65-19.4 232.13-20.1 231.6-20.8 230.25-20.8L230.25-20.8Q228.2-20.8 226.78-19.3 225.35-17.8 224.63-15.4 223.9-13 223.9-10.3L223.9-10.3Q223.9-6.65 225.03-5.43 226.15-4.2 228.35-4.2L228.35-4.2Q230.65-4.2 232.38-4.93 234.1-5.65 235.35-6.45L235.35-6.45Q235.75-6.7 236.05-6.85 236.35-7 236.55-7L236.55-7Q236.8-7 236.95-6.8 237.1-6.6 237.1-6.35L237.1-6.35Q237.1-5.45 236.3-4.25 235.5-3.05 234.03-1.9 232.55-0.75 230.55 0.03 228.55 0.8 226.15 0.8ZM248.25 0.8L248.25 0.8Q244.4 0.8 242.3-1.63 240.2-4.05 240.2-8.3L240.2-8.3Q240.2-11.85 241.2-14.8 242.2-17.75 244-19.95 245.8-22.15 248.23-23.35 250.65-24.55 253.5-24.55L253.5-24.55Q256.9-24.55 258.7-23.1 260.5-21.65 260.5-18.95L260.5-18.95Q260.5-16.2 258.68-14.15 256.85-12.1 253.43-10.65 250-9.2 245.25-8.2L245.25-8.2 244.6-11.2Q247.35-11.55 249.65-12.4 251.95-13.25 253.35-14.68 254.75-16.1 254.75-18.05L254.75-18.05Q254.75-19.4 254.23-20.1 253.7-20.8 252.35-20.8L252.35-20.8Q250.3-20.8 248.88-19.3 247.45-17.8 246.73-15.4 246-13 246-10.3L246-10.3Q246-6.65 247.13-5.43 248.25-4.2 250.45-4.2L250.45-4.2Q252.75-4.2 254.48-4.93 256.2-5.65 257.45-6.45L257.45-6.45Q257.85-6.7 258.15-6.85 258.45-7 258.65-7L258.65-7Q258.9-7 259.05-6.8 259.2-6.6 259.2-6.35L259.2-6.35Q259.2-5.45 258.4-4.25 257.6-3.05 256.13-1.9 254.65-0.75 252.65 0.03 250.65 0.8 248.25 0.8ZM268.65-1.2L268.65-1.2 267.45-8.75Q269.3-13.55 271.23-17.07 273.15-20.6 275.15-22.55 277.15-24.5 279.2-24.5L279.2-24.5Q280.35-24.5 280.85-23.78 281.35-23.05 281.35-21.95L281.35-21.95Q281.35-20.95 281.13-20.03 280.9-19.1 280.48-18.5 280.05-17.9 279.45-17.9L279.45-17.9Q278.9-17.9 278.23-18.25 277.55-18.6 276.4-18.6L276.4-18.6Q275.65-18.6 274.5-17.05 273.35-15.5 272.13-12.93 270.9-10.35 269.95-7.28 269-4.2 268.65-1.2ZM264.45 0.7L264.45 0.7Q263.8 0.7 263.48 0.48 263.15 0.25 263.13-0.7 263.1-1.65 263.35-3.75L263.35-3.75 265.7-24.55 269.2-24.55Q269.95-24.55 270.55-23.45 271.15-22.35 271.15-20.95L271.15-20.95Q271.15-20.3 270.78-18.93 270.4-17.55 269.9-16.03 269.4-14.5 269-13.35L269-13.35 267.7-9.25 269.55-9.55 268.65-1.2Q268.6-0.7 268.05-0.33 267.5 0.05 266.78 0.28 266.05 0.5 265.4 0.6 264.75 0.7 264.45 0.7ZM288.9 0.8L288.9 0.8Q285.1 0.8 282.93-0.38 280.75-1.55 280.75-3.55L280.75-3.55Q280.75-4.45 281.03-5.23 281.3-6 281.85-6L281.85-6Q282.05-6 282.3-5.9 282.55-5.8 283.25-5.35L283.25-5.35Q284.25-4.7 285.48-4.15 286.7-3.6 287.98-3.28 289.25-2.95 290.35-2.95L290.35-2.95Q291.95-2.95 292.68-3.73 293.4-4.5 293.4-5.8L293.4-5.8Q293.4-6.75 292.83-7.38 292.25-8 291-8.8L291-8.8 287.9-10.8Q285.95-12.05 284.63-13.48 283.3-14.9 283.3-17.2L283.3-17.2Q283.3-20.45 285.8-22.48 288.3-24.5 292.85-24.5L292.85-24.5Q296.05-24.5 297.55-23.85 299.05-23.2 299.05-21.6L299.05-21.6Q299.05-20.35 298.68-19.5 298.3-18.65 297.65-18.65L297.65-18.65Q297.45-18.65 297.13-18.75 296.8-18.85 296.55-19L296.55-19Q296.15-19.25 295.3-19.7 294.45-20.15 293.4-20.53 292.35-20.9 291.2-20.9L291.2-20.9Q290.05-20.9 289.33-20.23 288.6-19.55 288.6-18.4L288.6-18.4Q288.6-17.45 289.2-16.8 289.8-16.15 291.2-15.45L291.2-15.45 294.45-13.95Q296.5-13 297.78-11.73 299.05-10.45 299.05-7.95L299.05-7.95Q299.05-5 297.63-3.05 296.2-1.1 293.88-0.15 291.55 0.8 288.9 0.8ZM329.1 0.8L329.1 0.8Q324.9 0.8 321.77-0.88 318.65-2.55 316.9-5.9 315.15-9.25 315.15-14.15L315.15-14.15Q315.15-18.65 316.57-22.43 318-26.2 320.6-28.98 323.2-31.75 326.8-33.27 330.4-34.8 334.8-34.8L334.8-34.8Q338.9-34.8 340.95-33.93 343-33.05 343-30.8L343-30.8Q343-29.6 342.57-28.75 342.15-27.9 341.65-27.9L341.65-27.9Q341.2-27.9 340.63-28.2 340.05-28.5 339.35-28.85L339.35-28.85Q338.15-29.45 336.73-30.13 335.3-30.8 332.95-30.8L332.95-30.8Q329.9-30.8 327.38-28.8 324.85-26.8 323.32-23.28 321.8-19.75 321.8-15.05L321.8-15.05Q321.8-11.1 322.98-8.45 324.15-5.8 326.1-4.5 328.05-3.2 330.35-3.2L330.35-3.2Q332.25-3.2 333.75-3.93 335.25-4.65 336.38-5.6 337.5-6.55 338.4-7.28 339.3-8 340-8L340-8Q340.55-8 340.93-7.75 341.3-7.5 341.3-6.7L341.3-6.7Q341.3-4.75 339.65-3.05 338-1.35 335.25-0.28 332.5 0.8 329.1 0.8ZM352.45 0.75L352.45 0.75Q348.15 0.75 345.78-1.78 343.4-4.3 343.4-9.2L343.4-9.2Q343.4-12.45 344.48-15.23 345.55-18 347.4-20.1 349.25-22.2 351.68-23.38 354.1-24.55 356.8-24.55L356.8-24.55Q361.1-24.55 363.38-22 365.65-19.45 365.65-14.3L365.65-14.3Q365.65-11.2 364.63-8.47 363.6-5.75 361.8-3.68 360-1.6 357.6-0.43 355.2 0.75 352.45 0.75ZM353.65-3L353.65-3Q355.55-3 356.93-4.4 358.3-5.8 359.03-8.25 359.75-10.7 359.75-13.75L359.75-13.75Q359.75-17 358.78-18.9 357.8-20.8 355.55-20.8L355.55-20.8Q353.7-20.8 352.28-19.4 350.85-18 350.08-15.58 349.3-13.15 349.3-10.05L349.3-10.05Q349.3-6.6 350.4-4.8 351.5-3 353.65-3ZM388.4 0.5L384.85 0.5Q384.3 0.5 384.02-0.03 383.75-0.55 383.68-1.2 383.6-1.85 383.6-2.25L383.6-2.25Q383.6-2.95 383.7-4.05 383.8-5.15 383.95-6.38 384.1-7.6 384.25-8.5L384.25-8.5 385.1-13.7Q385.25-14.7 385.4-15.58 385.55-16.45 385.55-17.45L385.55-17.45Q385.55-18.2 385.25-18.6 384.95-19 384.45-19L384.45-19Q383.8-19 382.3-17.75 380.8-16.5 379.1-14.18 377.4-11.85 376.02-8.6 374.65-5.35 374.25-1.35L374.25-1.35 372.95-8.75Q374.45-13.1 376.32-16.1 378.2-19.1 380.15-20.95 382.1-22.8 383.93-23.65 385.75-24.5 387.15-24.5L387.15-24.5Q388.65-24.5 389.57-23.95 390.5-23.4 390.93-22.43 391.35-21.45 391.35-20.15L391.35-20.15Q391.35-18.9 391.18-17.68 391-16.45 390.8-15.15L390.8-15.15 388.4 0.5ZM369.9 0.7L369.9 0.7Q369.25 0.7 368.93 0.48 368.6 0.25 368.57-0.7 368.55-1.65 368.8-3.75L368.8-3.75 371.15-24.55 374.65-24.55Q375.4-24.55 376-23.45 376.6-22.35 376.6-20.95L376.6-20.95Q376.6-20.3 376.23-18.93 375.85-17.55 375.35-16.03 374.85-14.5 374.45-13.35L374.45-13.35 373.15-9.25 375-9.55 374.2-1.35Q374.15-0.85 373.6-0.45 373.05-0.05 372.3 0.2 371.55 0.45 370.88 0.58 370.2 0.7 369.9 0.7ZM415.05 0.5L411.5 0.5Q410.95 0.5 410.67-0.03 410.4-0.55 410.32-1.2 410.25-1.85 410.25-2.25L410.25-2.25Q410.25-2.95 410.35-4.05 410.45-5.15 410.6-6.38 410.75-7.6 410.9-8.5L410.9-8.5 411.75-13.7Q411.9-14.7 412.05-15.58 412.2-16.45 412.2-17.45L412.2-17.45Q412.2-18.2 411.9-18.6 411.6-19 411.1-19L411.1-19Q410.45-19 408.95-17.75 407.45-16.5 405.75-14.18 404.05-11.85 402.67-8.6 401.3-5.35 400.9-1.35L400.9-1.35 399.6-8.75Q401.1-13.1 402.97-16.1 404.85-19.1 406.8-20.95 408.75-22.8 410.57-23.65 412.4-24.5 413.8-24.5L413.8-24.5Q415.3-24.5 416.22-23.95 417.15-23.4 417.57-22.43 418-21.45 418-20.15L418-20.15Q418-18.9 417.82-17.68 417.65-16.45 417.45-15.15L417.45-15.15 415.05 0.5ZM396.55 0.7L396.55 0.7Q395.9 0.7 395.57 0.48 395.25 0.25 395.22-0.7 395.2-1.65 395.45-3.75L395.45-3.75 397.8-24.55 401.3-24.55Q402.05-24.55 402.65-23.45 403.25-22.35 403.25-20.95L403.25-20.95Q403.25-20.3 402.88-18.93 402.5-17.55 402-16.03 401.5-14.5 401.1-13.35L401.1-13.35 399.8-9.25 401.65-9.55 400.85-1.35Q400.8-0.85 400.25-0.45 399.7-0.05 398.95 0.2 398.2 0.45 397.52 0.58 396.85 0.7 396.55 0.7ZM429.1 0.8L429.1 0.8Q425.25 0.8 423.15-1.63 421.05-4.05 421.05-8.3L421.05-8.3Q421.05-11.85 422.05-14.8 423.05-17.75 424.85-19.95 426.65-22.15 429.07-23.35 431.5-24.55 434.35-24.55L434.35-24.55Q437.75-24.55 439.55-23.1 441.35-21.65 441.35-18.95L441.35-18.95Q441.35-16.2 439.52-14.15 437.7-12.1 434.27-10.65 430.85-9.2 426.1-8.2L426.1-8.2 425.45-11.2Q428.2-11.55 430.5-12.4 432.8-13.25 434.2-14.68 435.6-16.1 435.6-18.05L435.6-18.05Q435.6-19.4 435.07-20.1 434.55-20.8 433.2-20.8L433.2-20.8Q431.15-20.8 429.72-19.3 428.3-17.8 427.57-15.4 426.85-13 426.85-10.3L426.85-10.3Q426.85-6.65 427.97-5.43 429.1-4.2 431.3-4.2L431.3-4.2Q433.6-4.2 435.32-4.93 437.05-5.65 438.3-6.45L438.3-6.45Q438.7-6.7 439-6.85 439.3-7 439.5-7L439.5-7Q439.75-7 439.9-6.8 440.05-6.6 440.05-6.35L440.05-6.35Q440.05-5.45 439.25-4.25 438.45-3.05 436.97-1.9 435.5-0.75 433.5 0.03 431.5 0.8 429.1 0.8ZM451.35 0.8L451.35 0.8Q447.4 0.8 445.3-1.65 443.2-4.1 443.2-8.7L443.2-8.7Q443.2-13.2 444.97-16.8 446.75-20.4 449.82-22.48 452.9-24.55 456.85-24.55L456.85-24.55Q458.95-24.55 460.55-24 462.15-23.45 462.15-21.7L462.15-21.7Q462.15-20.95 461.9-20.2 461.65-19.45 461.25-18.95 460.85-18.45 460.45-18.45L460.45-18.45Q460.25-18.45 459.9-18.57 459.55-18.7 459.3-18.85L459.3-18.85Q458.75-19.2 457.97-19.65 457.2-20.1 456.27-20.45 455.35-20.8 454.35-20.8L454.35-20.8Q452.8-20.8 451.57-19.35 450.35-17.9 449.65-15.5 448.95-13.1 448.95-10.3L448.95-10.3Q448.95-6.6 450.07-5.38 451.2-4.15 453.35-4.15L453.35-4.15Q455.15-4.15 456.4-4.78 457.65-5.4 458.8-6.2L458.8-6.2Q459.25-6.5 459.5-6.58 459.75-6.65 459.95-6.65L459.95-6.65Q460.2-6.65 460.35-6.45 460.5-6.25 460.5-6L460.5-6Q460.5-5.1 459.75-3.93 459-2.75 457.7-1.68 456.4-0.6 454.77 0.1 453.15 0.8 451.35 0.8ZM469.25 0.8L469.25 0.8Q466.85 0.8 465.88-0.6 464.9-2 465.25-5L465.25-5 467.2-20.25 465.6-20.25Q464.85-20.25 464.85-21.05L464.85-21.05Q464.85-21.55 465.52-22.5 466.2-23.45 467.25-24.6 468.3-25.75 469.42-26.8 470.55-27.85 471.5-28.53 472.45-29.2 472.95-29.2L472.95-29.2Q473.5-29.2 473.7-28.78 473.9-28.35 473.8-27.7L473.8-27.7 473.35-23.75 478.95-23.75Q479.7-23.75 479.82-23.5 479.95-23.25 479.75-22.7L479.75-22.7Q479.15-21 478.63-20.63 478.1-20.25 476.7-20.25L476.7-20.25 472.7-20.25 471.45-9.55Q471.35-8.6 471.27-7.75 471.2-6.9 471.2-6.2L471.2-6.2Q471.2-5.05 471.75-4.58 472.3-4.1 473.55-4.1L473.55-4.1Q474.75-4.1 475.63-4.6 476.5-5.1 476.85-5.1L476.85-5.1Q477.25-5.1 477.25-4.6L477.25-4.6Q477.25-4.1 476.72-3.2 476.2-2.3 475.17-1.38 474.15-0.45 472.65 0.18 471.15 0.8 469.25 0.8Z" opacity="1" transform="matrix(1,0,0,1,0,0)" fill="#0080ff" class="slogan-text-1" data-fill-palette-color="secondary" id="text-1"></path></svg></g></svg></g></svg></g></svg></g><g transform="matrix(1,0,0,1,62.82912966594221,0)"><svg viewBox="0 0 66.34174066811558 60.39961782918539" height="60.39961782918539" width="66.34174066811558"><g><svg xmlns="http://www.w3.org/2000/svg" xmlns:xlink="http://www.w3.org/1999/xlink" version="1.1" x="0" y="0" viewBox="9.269 12.559000000000001 82.25 74.883" enable-background="new 0 0 100 100" xml:space="preserve" height="60.39961782918539" width="66.34174066811558" class="icon-icon-0" data-fill-palette-color="accent" id="icon-0"><polygon points="73.728,28.041 53.355,28.041 53.355,45.544 38.466,45.544 38.466,58.702 22.775,58.702 22.775,69.374 9.269,69.374   9.269,87.442 91.519,87.442 91.519,28.041 " fill="#010c80" data-fill-palette-color="accent"></polygon><circle cx="39.75" cy="17.69" r="5.1" fill="#010c80" data-fill-palette-color="accent"></circle><path d="M49.858 23.905A3.03 3.03 0 0 0 45.57 23.862L37.65 31.623 36.264 28.782C37.468 27.092 37.481 24.753 36.12 23.052A4.767 4.767 0 0 0 29.421 22.308C29.031 22.62 19.808 30.068 14.81 40.064A4.8 4.8 0 0 0 14.344 41.637C14.337 41.675 14.337 41.712 14.33 41.75 14.323 41.82 14.316 41.891 14.313 41.96 14.299 42.132 14.301 42.305 14.318 42.48 14.344 42.903 14.422 43.32 14.557 43.72L17.566 57.123 10.8 66.825A3.035 3.035 0 0 0 13.285 71.593C14.243 71.593 15.185 71.14 15.775 70.295L23.304 59.496A3.03 3.03 0 0 0 23.776 57.098L21.367 46.363A4.8 4.8 0 0 0 22.652 45.33L27.047 47.714 24.682 55.758A3.033 3.033 0 1 0 30.5 57.471L33.559 47.075A3.034 3.034 0 0 0 32.096 43.554L25.828 40.154C27.732 37.393 29.881 34.988 31.662 33.187L34.041 38.065A3.04 3.04 0 0 0 36.768 39.768C37.555 39.768 38.319 39.461 38.889 38.901L49.813 28.197A3.034 3.034 0 0 0 49.858 23.905" fill="#010c80" data-fill-palette-color="accent"></path><path d="M80.614 16.03H75.784V15.487C75.784 14.423 74.919 13.557 73.854 13.557H70.42A1.933 1.933 0 0 0 68.489 15.487V16.03H64.26C63.508 16.03 62.899 16.64 62.899 17.392V26.017C62.899 26.769 63.508 27.379 64.26 27.379H80.614C81.366 27.379 81.975 26.769 81.975 26.017V17.392A1.36 1.36 0 0 0 80.614 16.03M69.626 15.487C69.626 15.049 69.982 14.694 70.42 14.694H73.855C74.293 14.694 74.648 15.05 74.648 15.487V16.03H69.627z" fill="#010c80" data-fill-palette-color="accent"></path></svg></g></svg></g><g></g></svg></g></svg></g></svg></g></svg></g><defs></defs></svg><rect width="320" height="360" fill="none" stroke="none" visibility="hidden"></rect></g></svg></g></svg>